{
  "accessors": [
    {
      "bufferView": 0,
      "componentType": 5125,
      "count": 1158,
      "type": "SCALAR"
    },
    {
      "bufferView": 1,
      "componentType": 5126,
      "count": 335,
      "max": [
        0.0406892291450082,
        0.021869631427774552,
        0.003999999898951501
      ],
      "min": [
        0.03521186112177157,
        0.015870388412472,
        -0.003999999898951502
      ],
      "type": "VEC3"
    },
    {
      "bufferView": 2,
      "componentType": 5126,
      "count": 335,
      "max": [
        0.9022849724766904,
        0.43115179882845134,
        1.0
      ],
      "min": [
        -0.9169419798061117,
        -0.9999999999999996,
        -1.0
      ],
      "type": "VEC3"
    },
    {
      "bufferView": 3,
      "componentType": 5126,
      "count": 335,
      "max": [
        0.9949890174483652,
        1.0
      ],
      "min": [
        0.0,
        0.0
      ],
      "type": "VEC2"
    },
    {
      "bufferView": 4,
      "componentType": 5125,
      "count": 1158,
      "type": "SCALAR"
    },
    {
      "bufferView": 5,
      "componentType": 5126,
      "count": 335,
      "max": [
        -0.04211943575316053,
        0.02548352293473384,
        0.003999999898951497
      ],
      "min": [
        -0.05005710645281132,
        0.01727236591942624,
        -0.003999999898951502
      ],
      "type": "VEC3"
    },
    {
      "bufferView": 6,
      "componentType": 5126,
      "count": 335,
      "max": [
        0.9014069940297645,
        0.4373726812075216,
        1.0
      ],
      "min": [
        -0.8992810516363207,
        -0.9999999999999989,
        -1.0
      ],
      "type": "VEC3"
    },
    {
      "bufferView": 7,
      "componentType": 5126,
      "count": 335,
      "max": [
        1.0,
        0.7706128033358972
      ],
      "min": [
        0.0,
        0.0
      ],
      "type": "VEC2"
    },
    {
      "bufferView": 8,
      "componentType": 5125,
      "count": 4362,
      "type": "SCALAR"
    },
    {
      "bufferView": 9,
      "componentType": 5126,
      "count": 1225,
      "max": [
        0.05310233516287112,
        0.10978269580122353,
        0.003999999898951502
      ],
      "min": [
        0.03297745425576422,
        0.07166550309581905,
        -0.003999999898951502
      ],
      "type": "VEC3"
    },
    {
      "bufferView": 10,
      "componentType": 5126,
      "count": 1225,
      "max": [
        0.9999999937155435,
        0.9999976604589873,
        1.0
      ],
      "min": [
        -0.9999999925558508,
        -0.9999338450349444,
        -1.0
      ],
      "type": "VEC3"
    },
    {
      "bufferView": 11,
      "componentType": 5126,
      "count": 1225,
      "max": [
        1.0,
        0.6156627263373796
      ],
      "min": [
        0.0,
        0.0
      ],
      "type": "VEC2"
    },
    {
      "bufferView": 12,
      "componentType": 5125,
      "count": 4434,
      "type": "SCALAR"
    },
    {
      "bufferView": 13,
      "componentType": 5126,
      "count": 1245,
      "max": [
        -0.03284522862570122,
        0.10975888989640231,
        0.003999999898951501
      ],
      "min": [
        -0.053037955170255585,
        0.07175795411107275,
        -0.003999999898951502
      ],
      "type": "VEC3"
    },
    {
      "bufferView": 14,
      "componentType": 5126,
      "count": 1245,
      "max": [
        0.9999999947725112,
        0.9999999999999996,
        1.0
      ],
      "min": [
        -0.99999996192833,
        -0.9999993011528001,
        -1.0
      ],
      "type": "VEC3"
    },
    {
      "bufferView": 15,
      "componentType": 5126,
      "count": 1245,
      "max": [
        0.8117527949731661,
        1.0
      ],
      "min": [
        0.0,
        0.0
      ],
      "type": "VEC2"
    },
    {
      "bufferView": 16,
      "componentType": 5125,
      "count": 5442,
      "type": "SCALAR"
    },
    {
      "bufferView": 17,
      "componentType": 5126,
      "count": 1521,
      "max": [
        0.08446140914614379,
        0.09085408073320746,
        0.003999999898951492
      ],
      "min": [
        -0.08441835623378433,
        0.0514680222009435,
        -0.003999999898951502
      ],
      "type": "VEC3"
    },
    {
      "bufferView": 18,
      "componentType": 5126,
      "count": 1521,
      "max": [
        0.9999999338848051,
        0.9999999879600406,
        1.0
      ],
      "min": [
        -0.9999995891607281,
        -0.9999999999495927,
        -1.0
      ],
      "type": "VEC3"
    },
    {
      "bufferView": 19,
      "componentType": 5126,
      "count": 1521,
      "max": [
        1.0,
        0.5528259670299556
      ],
      "min": [
        0.0,
        0.0
      ],
      "type": "VEC2"
    },
    {
      "bufferView": 20,
      "componentType": 5125,
      "count": 31746,
      "type": "SCALAR"
    },
    {
      "bufferView": 21,
      "componentType": 5126,
      "count": 8813,
      "max": [
        0.08440771910300311,
        0.04292497755677581,
        0.003999999898951494
      ],
      "min": [
        -0.0844614091461438,
        -0.10978269580122355,
        -0.003999999898951502
      ],
      "type": "VEC3"
    },
    {
      "bufferView": 22,
      "componentType": 5126,
      "count": 8813,
      "max": [
        0.9999999990976606,
        0.9999999999487091,
        1.0
      ],
      "min": [
        -0.9999999999836556,
        -0.9999999999999992,
        -1.0
      ],
      "type": "VEC3"
    },
    {
      "bufferView": 23,
      "componentType": 5126,
      "count": 8813,
      "max": [
        1.0,
        0.6892244156577488
      ],
      "min": [
        0.0,
        0.0
      ],
      "type": "VEC2"
    }
  ],
  "asset": {
    "generator": "Adobe Illustrator",
    "version": "2.0"
  },
  "bufferViews": [
    {
      "buffer": 0,
      "byteLength": 4632,
      "target": 34963
    },
    {
      "buffer": 0,
      "byteLength": 4020,
      "byteOffset": 4632,
      "target": 34962
    },
    {
      "buffer": 0,
      "byteLength": 4020,
      "byteOffset": 8652,
      "target": 34962
    },
    {
      "buffer": 0,
      "byteLength": 2680,
      "byteOffset": 12672,
      "target": 34962
    },
    {
      "buffer": 0,
      "byteLength": 4632,
      "byteOffset": 15352,
      "target": 34963
    },
    {
      "buffer": 0,
      "byteLength": 4020,
      "byteOffset": 19984,
      "target": 34962
    },
    {
      "buffer": 0,
      "byteLength": 4020,
      "byteOffset": 24004,
      "target": 34962
    },
    {
      "buffer": 0,
      "byteLength": 2680,
      "byteOffset": 28024,
      "target": 34962
    },
    {
      "buffer": 0,
      "byteLength": 17448,
      "byteOffset": 30704,
      "target": 34963
    },
    {
      "buffer": 0,
      "byteLength": 14700,
      "byteOffset": 48152,
      "target": 34962
    },
    {
      "buffer": 0,
      "byteLength": 14700,
      "byteOffset": 62852,
      "target": 34962
    },
    {
      "buffer": 0,
      "byteLength": 9800,
      "byteOffset": 77552,
      "target": 34962
    },
    {
      "buffer": 0,
      "byteLength": 17736,
      "byteOffset": 87352,
      "target": 34963
    },
    {
      "buffer": 0,
      "byteLength": 14940,
      "byteOffset": 105088,
      "target": 34962
    },
    {
      "buffer": 0,
      "byteLength": 14940,
      "byteOffset": 120028,
      "target": 34962
    },
    {
      "buffer": 0,
      "byteLength": 9960,
      "byteOffset": 134968,
      "target": 34962
    },
    {
      "buffer": 0,
      "byteLength": 21768,
      "byteOffset": 144928,
      "target": 34963
    },
    {
      "buffer": 0,
      "byteLength": 18252,
      "byteOffset": 166696,
      "target": 34962
    },
    {
      "buffer": 0,
      "byteLength": 18252,
      "byteOffset": 184948,
      "target": 34962
    },
    {
      "buffer": 0,
      "byteLength": 12168,
      "byteOffset": 203200,
      "target": 34962
    },
    {
      "buffer": 0,
      "byteLength": 126984,
      "byteOffset": 215368,
      "target": 34963
    },
    {
      "buffer": 0,
      "byteLength": 105756,
      "byteOffset": 342352,
      "target": 34962
    },
    {
      "buffer": 0,
      "byteLength": 105756,
      "byteOffset": 448108,
      "target": 34962
    },
    {
      "buffer": 0,
      "byteLength": 70504,
      "byteOffset": 553864,
      "target": 34962
    }
  ],
  "buffers": [
    {
      "byteLength": 624368,
      "uri": "data:application/octet-stream;base64,"
    }
  ],
  "materials": [
    {
      "doubleSided": true,
      "pbrMetallicRoughness": {
        "baseColorFactor": [
          0.9999999403953552,
          0.9999999403953552,
          0.9999999403953552,
          1.0
        ],
        "metallicFactor": 0.0,
        "roughnessFactor": 0.4000000059604645
      }
    },
    {
      "doubleSided": true,
      "pbrMetallicRoughness": {
        "baseColorFactor": [
          0.9999999403953552,
          0.9999999403953552,
          0.9999999403953552,
          1.0
        ],
        "metallicFactor": 0.0,
        "roughnessFactor": 0.4000000059604645
      }
    },
    {
      "doubleSided": true,
      "pbrMetallicRoughness": {
        "baseColorFactor": [
          0.9999999403953552,
          0.9999999403953552,
          0.9999999403953552,
          1.0
        ],
        "metallicFactor": 0.0,
        "roughnessFactor": 0.4000000059604645
      }
    },
    {
      "doubleSided": true,
      "pbrMetallicRoughness": {
        "baseColorFactor": [
          0.9999999403953552,
          0.9999999403953552,
          0.9999999403953552,
          1.0
        ],
        "metallicFactor": 0.0,
        "roughnessFactor": 0.4000000059604645
      }
    },
    {
      "doubleSided": true,
      "pbrMetallicRoughness": {
        "baseColorFactor": [
          0.9999999403953552,
          0.9999999403953552,
          0.9999999403953552,
          1.0
        ],
        "metallicFactor": 0.0,
        "roughnessFactor": 0.4000000059604645
      }
    },
    {
      "doubleSided": true,
      "pbrMetallicRoughness": {
        "baseColorFactor": [
          0.9999999403953552,
          0.9999999403953552,
          0.9999999403953552,
          1.0
        ],
        "metallicFactor": 0.0,
        "roughnessFactor": 0.4000000059604645
      }
    }
  ],
  "meshes": [
    {
      "primitives": [
        {
          "attributes": {
            "NORMAL": 2,
            "POSITION": 1,
            "TEXCOORD_0": 3
          },
          "indices": 0,
          "material": 0,
          "mode": 4
        }
      ]
    },
    {
      "primitives": [
        {
          "attributes": {
            "NORMAL": 6,
            "POSITION": 5,
            "TEXCOORD_0": 7
          },
          "indices": 4,
          "material": 1,
          "mode": 4
        }
      ]
    },
    {
      "primitives": [
        {
          "attributes": {
            "NORMAL": 10,
            "POSITION": 9,
            "TEXCOORD_0": 11
          },
          "indices": 8,
          "material": 2,
          "mode": 4
        }
      ]
    },
    {
      "primitives": [
        {
          "attributes": {
            "NORMAL": 14,
            "POSITION": 13,
            "TEXCOORD_0": 15
          },
          "indices": 12,
          "material": 3,
          "mode": 4
        }
      ]
    },
    {
      "primitives": [
        {
          "attributes": {
            "NORMAL": 18,
            "POSITION": 17,
            "TEXCOORD_0": 19
          },
          "indices": 16,
          "material": 4,
          "mode": 4
        }
      ]
    },
    {
      "primitives": [
        {
          "attributes": {
            "NORMAL": 22,
            "POSITION": 21,
            "TEXCOORD_0": 23
          },
          "indices": 20,
          "material": 5,
          "mode": 4
        }
      ]
    }
  ],
  "nodes": [
    {
      "mesh": 0
    },
    {
      "mesh": 1
    },
    {
      "mesh": 2
    },
    {
      "mesh": 3
    },
    {
      "mesh": 4
    },
    {
      "mesh": 5
    }
  ],
  "scenes": [
    {
      "nodes": [
        0,
        1,
        2,
        3,
        4,
        5
      ]
    }
  ]
}
