{
  "accessors": [
    {
      "bufferView": 0,
      "componentType": 5125,
      "count": 4650,
      "type": "SCALAR"
    },
    {
      "bufferView": 1,
      "componentType": 5126,
      "count": 1303,
      "max": [
        0.03498405836396616,
        -0.05620199071969595,
        0.003999999898951499
      ],
      "min": [
        0.03056909717933555,
        -0.06066871873287641,
        -0.003999999898951502
      ],
      "type": "VEC3"
    },
    {
      "bufferView": 2,
      "componentType": 5126,
      "count": 1303,
      "max": [
        0.9999911798459861,
        0.9999833922517937,
        1.0
      ],
      "min": [
        -0.9999986145368114,
        -0.9999999301936403,
        -1.0
      ],
      "type": "VEC3"
    },
    {
      "bufferView": 3,
      "componentType": 5126,
      "count": 1303,
      "max": [
        0.7272148473966129,
        1.0
      ],
      "min": [
        0.0,
        0.0
      ],
      "type": "VEC2"
    },
    {
      "bufferView": 4,
      "componentType": 5125,
      "count": 4668,
      "type": "SCALAR"
    },
    {
      "bufferView": 5,
      "componentType": 5126,
      "count": 1308,
      "max": [
        -0.040191694594310365,
        -0.056174530728101274,
        0.0039999998989514955
      ],
      "min": [
        -0.04473899104725902,
        -0.060647371994689336,
        -0.003999999898951502
      ],
      "type": "VEC3"
    },
    {
      "bufferView": 6,
      "componentType": 5126,
      "count": 1308,
      "max": [
        0.9999963704479483,
        0.999999953528289,
        1.0
      ],
      "min": [
        -0.9999995478231725,
        -0.9999828046557594,
        -1.0
      ],
      "type": "VEC3"
    },
    {
      "bufferView": 7,
      "componentType": 5126,
      "count": 1308,
      "max": [
        1.0,
        0.8732793981055298
      ],
      "min": [
        0.0,
        0.0
      ],
      "type": "VEC2"
    },
    {
      "bufferView": 8,
      "componentType": 5125,
      "count": 4668,
      "type": "SCALAR"
    },
    {
      "bufferView": 9,
      "componentType": 5126,
      "count": 1308,
      "max": [
        0.044637748497721855,
        -0.05621675677228233,
        0.003999999898951502
      ],
      "min": [
        0.04019543289786208,
        -0.060687753214550805,
        -0.003999999898951502
      ],
      "type": "VEC3"
    },
    {
      "bufferView": 10,
      "componentType": 5126,
      "count": 1308,
      "max": [
        0.999998066528781,
        0.9999975004488354,
        1.0
      ],
      "min": [
        -0.9999938554233072,
        -0.9999987732603224,
        -1.0
      ],
      "type": "VEC3"
    },
    {
      "bufferView": 11,
      "componentType": 5126,
      "count": 1308,
      "max": [
        0.7299982319107136,
        1.0
      ],
      "min": [
        0.0,
        0.0
      ],
      "type": "VEC2"
    },
    {
      "bufferView": 12,
      "componentType": 5125,
      "count": 1518,
      "type": "SCALAR"
    },
    {
      "bufferView": 13,
      "componentType": 5126,
      "count": 431,
      "max": [
        0.025602993746395616,
        -0.056010186100503234,
        0.003999999898951499
      ],
      "min": [
        -0.03513820298164089,
        -0.06102352941761549,
        -0.003999999898951502
      ],
      "type": "VEC3"
    },
    {
      "bufferView": 14,
      "componentType": 5126,
      "count": 431,
      "max": [
        0.9999934149984377,
        0.9999999950159674,
        1.0
      ],
      "min": [
        -0.9999828646983783,
        -0.9999999995091517,
        -1.0
      ],
      "type": "VEC3"
    },
    {
      "bufferView": 15,
      "componentType": 5126,
      "count": 431,
      "max": [
        1.0,
        0.6096847041313395
      ],
      "min": [
        0.0,
        0.0
      ],
      "type": "VEC2"
    },
    {
      "bufferView": 16,
      "componentType": 5125,
      "count": 6252,
      "type": "SCALAR"
    },
    {
      "bufferView": 17,
      "componentType": 5126,
      "count": 1748,
      "max": [
        0.016806417412985483,
        0.08273923212038778,
        0.003999999898951499
      ],
      "min": [
        -0.017032901298666026,
        0.0551992766039973,
        -0.003999999898951502
      ],
      "type": "VEC3"
    },
    {
      "bufferView": 18,
      "componentType": 5126,
      "count": 1748,
      "max": [
        0.9999999943210852,
        0.9999988556798862,
        1.0
      ],
      "min": [
        -0.9999999435715129,
        -0.9999999854557073,
        -1.0
      ],
      "type": "VEC3"
    },
    {
      "bufferView": 19,
      "componentType": 5126,
      "count": 1748,
      "max": [
        1.0,
        0.9608486640256904
      ],
      "min": [
        0.0,
        0.0
      ],
      "type": "VEC2"
    },
    {
      "bufferView": 20,
      "componentType": 5125,
      "count": 3804,
      "type": "SCALAR"
    },
    {
      "bufferView": 21,
      "componentType": 5126,
      "count": 1068,
      "max": [
        0.033364296637979865,
        0.07119713659167337,
        0.0039999998989514955
      ],
      "min": [
        -0.03336888724507166,
        0.03971051843662672,
        -0.003999999898951502
      ],
      "type": "VEC3"
    },
    {
      "bufferView": 22,
      "componentType": 5126,
      "count": 1068,
      "max": [
        0.999999990856443,
        0.9999999982788956,
        1.0
      ],
      "min": [
        -0.9999999899819063,
        -0.9999999776223207,
        -1.0
      ],
      "type": "VEC3"
    },
    {
      "bufferView": 23,
      "componentType": 5126,
      "count": 1068,
      "max": [
        1.0,
        0.9231424945733185
      ],
      "min": [
        0.0,
        0.0
      ],
      "type": "VEC2"
    },
    {
      "bufferView": 24,
      "componentType": 5125,
      "count": 8136,
      "type": "SCALAR"
    },
    {
      "bufferView": 25,
      "componentType": 5126,
      "count": 2278,
      "max": [
        0.03616480236952489,
        0.025474467918509228,
        0.003999999898951499
      ],
      "min": [
        -0.03628259327960448,
        -0.04740961391923226,
        -0.003999999898951502
      ],
      "type": "VEC3"
    },
    {
      "bufferView": 26,
      "componentType": 5126,
      "count": 2278,
      "max": [
        0.9999999970779087,
        0.9999999946892634,
        1.0
      ],
      "min": [
        -0.9999999999868571,
        -0.9999999986079096,
        -1.0
      ],
      "type": "VEC3"
    },
    {
      "bufferView": 27,
      "componentType": 5126,
      "count": 2278,
      "max": [
        1.0,
        0.9880488656542531
      ],
      "min": [
        0.0,
        0.0
      ],
      "type": "VEC2"
    },
    {
      "bufferView": 28,
      "componentType": 5125,
      "count": 4308,
      "type": "SCALAR"
    },
    {
      "bufferView": 29,
      "componentType": 5126,
      "count": 1212,
      "max": [
        0.061248543078563575,
        0.06348070254877741,
        0.003999999898951499
      ],
      "min": [
        -0.06124854307856359,
        -0.08273923212038775,
        -0.003999999898951502
      ],
      "type": "VEC3"
    },
    {
      "bufferView": 30,
      "componentType": 5126,
      "count": 1212,
      "max": [
        0.9999999984801463,
        0.9999999599606585,
        1.0
      ],
      "min": [
        -0.9999999999562392,
        -0.9999999990547369,
        -1.0
      ],
      "type": "VEC3"
    },
    {
      "bufferView": 31,
      "componentType": 5126,
      "count": 1212,
      "max": [
        1.0,
        0.7233388511867032
      ],
      "min": [
        0.0,
        0.0
      ],
      "type": "VEC2"
    }
  ],
  "asset": {
    "generator": "Adobe Illustrator",
    "version": "2.0"
  },
  "bufferViews": [
    {
      "buffer": 0,
      "byteLength": 18600,
      "target": 34963
    },
    {
      "buffer": 0,
      "byteLength": 15636,
      "byteOffset": 18600,
      "target": 34962
    },
    {
      "buffer": 0,
      "byteLength": 15636,
      "byteOffset": 34236,
      "target": 34962
    },
    {
      "buffer": 0,
      "byteLength": 10424,
      "byteOffset": 49872,
      "target": 34962
    },
    {
      "buffer": 0,
      "byteLength": 18672,
      "byteOffset": 60296,
      "target": 34963
    },
    {
      "buffer": 0,
      "byteLength": 15696,
      "byteOffset": 78968,
      "target": 34962
    },
    {
      "buffer": 0,
      "byteLength": 15696,
      "byteOffset": 94664,
      "target": 34962
    },
    {
      "buffer": 0,
      "byteLength": 10464,
      "byteOffset": 110360,
      "target": 34962
    },
    {
      "buffer": 0,
      "byteLength": 18672,
      "byteOffset": 120824,
      "target": 34963
    },
    {
      "buffer": 0,
      "byteLength": 15696,
      "byteOffset": 139496,
      "target": 34962
    },
    {
      "buffer": 0,
      "byteLength": 15696,
      "byteOffset": 155192,
      "target": 34962
    },
    {
      "buffer": 0,
      "byteLength": 10464,
      "byteOffset": 170888,
      "target": 34962
    },
    {
      "buffer": 0,
      "byteLength": 6072,
      "byteOffset": 181352,
      "target": 34963
    },
    {
      "buffer": 0,
      "byteLength": 5172,
      "byteOffset": 187424,
      "target": 34962
    },
    {
      "buffer": 0,
      "byteLength": 5172,
      "byteOffset": 192596,
      "target": 34962
    },
    {
      "buffer": 0,
      "byteLength": 3448,
      "byteOffset": 197768,
      "target": 34962
    },
    {
      "buffer": 0,
      "byteLength": 25008,
      "byteOffset": 201216,
      "target": 34963
    },
    {
      "buffer": 0,
      "byteLength": 20976,
      "byteOffset": 226224,
      "target": 34962
    },
    {
      "buffer": 0,
      "byteLength": 20976,
      "byteOffset": 247200,
      "target": 34962
    },
    {
      "buffer": 0,
      "byteLength": 13984,
      "byteOffset": 268176,
      "target": 34962
    },
    {
      "buffer": 0,
      "byteLength": 15216,
      "byteOffset": 282160,
      "target": 34963
    },
    {
      "buffer": 0,
      "byteLength": 12816,
      "byteOffset": 297376,
      "target": 34962
    },
    {
      "buffer": 0,
      "byteLength": 12816,
      "byteOffset": 310192,
      "target": 34962
    },
    {
      "buffer": 0,
      "byteLength": 8544,
      "byteOffset": 323008,
      "target": 34962
    },
    {
      "buffer": 0,
      "byteLength": 32544,
      "byteOffset": 331552,
      "target": 34963
    },
    {
      "buffer": 0,
      "byteLength": 27336,
      "byteOffset": 364096,
      "target": 34962
    },
    {
      "buffer": 0,
      "byteLength": 27336,
      "byteOffset": 391432,
      "target": 34962
    },
    {
      "buffer": 0,
      "byteLength": 18224,
      "byteOffset": 418768,
      "target": 34962
    },
    {
      "buffer": 0,
      "byteLength": 17232,
      "byteOffset": 436992,
      "target": 34963
    },
    {
      "buffer": 0,
      "byteLength": 14544,
      "byteOffset": 454224,
      "target": 34962
    },
    {
      "buffer": 0,
      "byteLength": 14544,
      "byteOffset": 468768,
      "target": 34962
    },
    {
      "buffer": 0,
      "byteLength": 9696,
      "byteOffset": 483312,
      "target": 34962
    }
  ],
  "buffers": [
    {
      "byteLength": 493008,
      "uri": "data:application/octet-stream;base64,"
    }
  ],
  "materials": [
    {
      "doubleSided": true,
      "pbrMetallicRoughness": {
        "baseColorFactor": [
          0.8984375,
          0.8984375,
          0.90234375,
          1.0
        ],
        "metallicFactor": 0.0,
        "roughnessFactor": 0.4000000059604645
      }
    },
    {
      "doubleSided": true,
      "pbrMetallicRoughness": {
        "baseColorFactor": [
          0.8984375,
          0.8984375,
          0.90234375,
          1.0
        ],
        "metallicFactor": 0.0,
        "roughnessFactor": 0.4000000059604645
      }
    },
    {
      "doubleSided": true,
      "pbrMetallicRoughness": {
        "baseColorFactor": [
          0.8984375,
          0.8984375,
          0.90234375,
          1.0
        ],
        "metallicFactor": 0.0,
        "roughnessFactor": 0.4000000059604645
      }
    },
    {
      "doubleSided": true,
      "pbrMetallicRoughness": {
        "baseColorFactor": [
          0.8984375,
          0.8984375,
          0.90234375,
          1.0
        ],
        "metallicFactor": 0.0,
        "roughnessFactor": 0.4000000059604645
      }
    },
    {
      "doubleSided": true,
      "pbrMetallicRoughness": {
        "baseColorFactor": [
          0.8984375,
          0.8984375,
          0.90234375,
          1.0
        ],
        "metallicFactor": 0.0,
        "roughnessFactor": 0.4000000059604645
      }
    },
    {
      "doubleSided": true,
      "pbrMetallicRoughness": {
        "baseColorFactor": [
          0.8984375,
          0.8984375,
          0.90234375,
          1.0
        ],
        "metallicFactor": 0.0,
        "roughnessFactor": 0.4000000059604645
      }
    },
    {
      "doubleSided": true,
      "pbrMetallicRoughness": {
        "baseColorFactor": [
          0.8984375,
          0.8984375,
          0.90234375,
          1.0
        ],
        "metallicFactor": 0.0,
        "roughnessFactor": 0.4000000059604645
      }
    },
    {
      "doubleSided": true,
      "pbrMetallicRoughness": {
        "baseColorFactor": [
          0.8984375,
          0.8984375,
          0.90234375,
          1.0
        ],
        "metallicFactor": 0.0,
        "roughnessFactor": 0.4000000059604645
      }
    }
  ],
  "meshes": [
    {
      "primitives": [
        {
          "attributes": {
            "NORMAL": 2,
            "POSITION": 1,
            "TEXCOORD_0": 3
          },
          "indices": 0,
          "material": 0,
          "mode": 4
        }
      ]
    },
    {
      "primitives": [
        {
          "attributes": {
            "NORMAL": 6,
            "POSITION": 5,
            "TEXCOORD_0": 7
          },
          "indices": 4,
          "material": 1,
          "mode": 4
        }
      ]
    },
    {
      "primitives": [
        {
          "attributes": {
            "NORMAL": 10,
            "POSITION": 9,
            "TEXCOORD_0": 11
          },
          "indices": 8,
          "material": 2,
          "mode": 4
        }
      ]
    },
    {
      "primitives": [
        {
          "attributes": {
            "NORMAL": 14,
            "POSITION": 13,
            "TEXCOORD_0": 15
          },
          "indices": 12,
          "material": 3,
          "mode": 4
        }
      ]
    },
    {
      "primitives": [
        {
          "attributes": {
            "NORMAL": 18,
            "POSITION": 17,
            "TEXCOORD_0": 19
          },
          "indices": 16,
          "material": 4,
          "mode": 4
        }
      ]
    },
    {
      "primitives": [
        {
          "attributes": {
            "NORMAL": 22,
            "POSITION": 21,
            "TEXCOORD_0": 23
          },
          "indices": 20,
          "material": 5,
          "mode": 4
        }
      ]
    },
    {
      "primitives": [
        {
          "attributes": {
            "NORMAL": 26,
            "POSITION": 25,
            "TEXCOORD_0": 27
          },
          "indices": 24,
          "material": 6,
          "mode": 4
        }
      ]
    },
    {
      "primitives": [
        {
          "attributes": {
            "NORMAL": 30,
            "POSITION": 29,
            "TEXCOORD_0": 31
          },
          "indices": 28,
          "material": 7,
          "mode": 4
        }
      ]
    }
  ],
  "nodes": [
    {
      "mesh": 0
    },
    {
      "mesh": 1
    },
    {
      "mesh": 2
    },
    {
      "mesh": 3
    },
    {
      "mesh": 4
    },
    {
      "mesh": 5
    },
    {
      "mesh": 6
    },
    {
      "mesh": 7
    }
  ],
  "scenes": [
    {
      "nodes": [
        0,
        1,
        2,
        3,
        4,
        5,
        6,
        7
      ]
    }
  ]
}
