{
  "accessors": [
    {
      "bufferView": 0,
      "componentType": 5125,
      "count": 4650,
      "type": "SCALAR"
    },
    {
      "bufferView": 1,
      "componentType": 5126,
      "count": 1301,
      "max": [
        0.012921238333721413,
        0.07820776000276468,
        0.0039999998989515015
      ],
      "min": [
        -0.03303705737273707,
        0.06113650775971563,
        -0.0039999998989515015
      ],
      "type": "VEC3"
    },
    {
      "bufferView": 2,
      "componentType": 5126,
      "count": 1301,
      "max": [
        0.9999999573770973,
        0.9999999990127191,
        1.0
      ],
      "min": [
        -0.9999996789929535,
        -0.9999999809067812,
        -1.0
      ],
      "type": "VEC3"
    },
    {
      "bufferView": 3,
      "componentType": 5126,
      "count": 1301,
      "max": [
        0.7609523485991201,
        1.0
      ],
      "min": [
        0.0,
        0.0
      ],
      "type": "VEC2"
    },
    {
      "bufferView": 4,
      "componentType": 5125,
      "count": 9114,
      "type": "SCALAR"
    },
    {
      "bufferView": 5,
      "componentType": 5126,
      "count": 2545,
      "max": [
        0.039292585518426515,
        0.05445383886464002,
        0.003999999898951498
      ],
      "min": [
        -0.05957761547148541,
        -0.011972329826644867,
        -0.0039999998989515015
      ],
      "type": "VEC3"
    },
    {
      "bufferView": 6,
      "componentType": 5126,
      "count": 2545,
      "max": [
        0.9999999988141948,
        0.9999999976477535,
        1.0
      ],
      "min": [
        -0.9999999995326819,
        -0.9999999989697147,
        -1.0
      ],
      "type": "VEC3"
    },
    {
      "bufferView": 7,
      "componentType": 5126,
      "count": 2545,
      "max": [
        1.0,
        0.9583376883292464
      ],
      "min": [
        0.0,
        0.0
      ],
      "type": "VEC2"
    },
    {
      "bufferView": 8,
      "componentType": 5125,
      "count": 9540,
      "type": "SCALAR"
    },
    {
      "bufferView": 9,
      "componentType": 5126,
      "count": 2680,
      "max": [
        0.07370292568344483,
        0.05476261962322937,
        0.0039999998989515
      ],
      "min": [
        -0.07370292568344483,
        -0.05174974803838578,
        -0.0039999998989515015
      ],
      "type": "VEC3"
    },
    {
      "bufferView": 10,
      "componentType": 5126,
      "count": 2680,
      "max": [
        0.9999999996639161,
        0.9999999977796147,
        1.0
      ],
      "min": [
        -0.9999999998559956,
        -0.9999999961094698,
        -1.0
      ],
      "type": "VEC3"
    },
    {
      "bufferView": 11,
      "componentType": 5126,
      "count": 2680,
      "max": [
        1.0,
        0.9938954628180307
      ],
      "min": [
        0.0,
        0.0
      ],
      "type": "VEC2"
    },
    {
      "bufferView": 12,
      "componentType": 5125,
      "count": 11502,
      "type": "SCALAR"
    },
    {
      "bufferView": 13,
      "componentType": 5126,
      "count": 3209,
      "max": [
        0.062242982667567226,
        -0.038050919093360114,
        0.0039999998989515
      ],
      "min": [
        -0.06853172703680618,
        -0.07820776000276464,
        -0.0039999998989515015
      ],
      "type": "VEC3"
    },
    {
      "bufferView": 14,
      "componentType": 5126,
      "count": 3209,
      "max": [
        0.9999998674295978,
        0.9999999999977993,
        1.0
      ],
      "min": [
        -0.9999997250572588,
        -0.9999999987178878,
        -1.0
      ],
      "type": "VEC3"
    },
    {
      "bufferView": 15,
      "componentType": 5126,
      "count": 3209,
      "max": [
        1.0,
        0.9938137653648677
      ],
      "min": [
        0.0,
        0.0
      ],
      "type": "VEC2"
    }
  ],
  "asset": {
    "generator": "Adobe Illustrator",
    "version": "2.0"
  },
  "bufferViews": [
    {
      "buffer": 0,
      "byteLength": 18600,
      "target": 34963
    },
    {
      "buffer": 0,
      "byteLength": 15612,
      "byteOffset": 18600,
      "target": 34962
    },
    {
      "buffer": 0,
      "byteLength": 15612,
      "byteOffset": 34212,
      "target": 34962
    },
    {
      "buffer": 0,
      "byteLength": 10408,
      "byteOffset": 49824,
      "target": 34962
    },
    {
      "buffer": 0,
      "byteLength": 36456,
      "byteOffset": 60232,
      "target": 34963
    },
    {
      "buffer": 0,
      "byteLength": 30540,
      "byteOffset": 96688,
      "target": 34962
    },
    {
      "buffer": 0,
      "byteLength": 30540,
      "byteOffset": 127228,
      "target": 34962
    },
    {
      "buffer": 0,
      "byteLength": 20360,
      "byteOffset": 157768,
      "target": 34962
    },
    {
      "buffer": 0,
      "byteLength": 38160,
      "byteOffset": 178128,
      "target": 34963
    },
    {
      "buffer": 0,
      "byteLength": 32160,
      "byteOffset": 216288,
      "target": 34962
    },
    {
      "buffer": 0,
      "byteLength": 32160,
      "byteOffset": 248448,
      "target": 34962
    },
    {
      "buffer": 0,
      "byteLength": 21440,
      "byteOffset": 280608,
      "target": 34962
    },
    {
      "buffer": 0,
      "byteLength": 46008,
      "byteOffset": 302048,
      "target": 34963
    },
    {
      "buffer": 0,
      "byteLength": 38508,
      "byteOffset": 348056,
      "target": 34962
    },
    {
      "buffer": 0,
      "byteLength": 38508,
      "byteOffset": 386564,
      "target": 34962
    },
    {
      "buffer": 0,
      "byteLength": 25672,
      "byteOffset": 425072,
      "target": 34962
    }
  ],
  "buffers": [
    {
      "byteLength": 450744,
      "uri": "data:application/octet-stream;base64,"
    }
  ],
  "materials": [
    {
      "doubleSided": true,
      "pbrMetallicRoughness": {
        "baseColorFactor": [
          0.8984375,
          0.8984375,
          0.90234375,
          1.0
        ],
        "metallicFactor": 0.0,
        "roughnessFactor": 0.4000000059604645
      }
    },
    {
      "doubleSided": true,
      "pbrMetallicRoughness": {
        "baseColorFactor": [
          0.8984375,
          0.8984375,
          0.90234375,
          1.0
        ],
        "metallicFactor": 0.0,
        "roughnessFactor": 0.4000000059604645
      }
    },
    {
      "doubleSided": true,
      "pbrMetallicRoughness": {
        "baseColorFactor": [
          0.8984375,
          0.8984375,
          0.90234375,
          1.0
        ],
        "metallicFactor": 0.0,
        "roughnessFactor": 0.4000000059604645
      }
    },
    {
      "doubleSided": true,
      "pbrMetallicRoughness": {
        "baseColorFactor": [
          0.8984375,
          0.8984375,
          0.90234375,
          1.0
        ],
        "metallicFactor": 0.0,
        "roughnessFactor": 0.4000000059604645
      }
    }
  ],
  "meshes": [
    {
      "primitives": [
        {
          "attributes": {
            "NORMAL": 2,
            "POSITION": 1,
            "TEXCOORD_0": 3
          },
          "indices": 0,
          "material": 0,
          "mode": 4
        }
      ]
    },
    {
      "primitives": [
        {
          "attributes": {
            "NORMAL": 6,
            "POSITION": 5,
            "TEXCOORD_0": 7
          },
          "indices": 4,
          "material": 1,
          "mode": 4
        }
      ]
    },
    {
      "primitives": [
        {
          "attributes": {
            "NORMAL": 10,
            "POSITION": 9,
            "TEXCOORD_0": 11
          },
          "indices": 8,
          "material": 2,
          "mode": 4
        }
      ]
    },
    {
      "primitives": [
        {
          "attributes": {
            "NORMAL": 14,
            "POSITION": 13,
            "TEXCOORD_0": 15
          },
          "indices": 12,
          "material": 3,
          "mode": 4
        }
      ]
    }
  ],
  "nodes": [
    {
      "mesh": 0
    },
    {
      "mesh": 1
    },
    {
      "mesh": 2
    },
    {
      "mesh": 3
    }
  ],
  "scenes": [
    {
      "nodes": [
        0,
        1,
        2,
        3
      ]
    }
  ]
}
