{
  "accessors": [
    {
      "bufferView": 0,
      "componentType": 5125,
      "count": 4650,
      "type": "SCALAR"
    },
    {
      "bufferView": 1,
      "componentType": 5126,
      "count": 1303,
      "max": [
        -0.04022388130811705,
        -0.0030007863177403393,
        0.0039999998989515
      ],
      "min": [
        -0.0493508491399042,
        -0.011995966100211392,
        -0.0039999998989515015
      ],
      "type": "VEC3"
    },
    {
      "bufferView": 2,
      "componentType": 5126,
      "count": 1303,
      "max": [
        0.9999903214162534,
        0.9999898938661079,
        1.0
      ],
      "min": [
        -0.9999995709971575,
        -0.9999862230677454,
        -1.0
      ],
      "type": "VEC3"
    },
    {
      "bufferView": 3,
      "componentType": 5126,
      "count": 1303,
      "max": [
        0.7281852911492829,
        1.0
      ],
      "min": [
        0.0,
        0.0
      ],
      "type": "VEC2"
    },
    {
      "bufferView": 4,
      "componentType": 5125,
      "count": 4668,
      "type": "SCALAR"
    },
    {
      "bufferView": 5,
      "componentType": 5126,
      "count": 1308,
      "max": [
        0.02480798908846217,
        -0.02769494943730952,
        0.0039999998989515015
      ],
      "min": [
        0.013320606806048865,
        -0.03908155680310518,
        -0.0039999998989515015
      ],
      "type": "VEC3"
    },
    {
      "bufferView": 6,
      "componentType": 5126,
      "count": 1308,
      "max": [
        0.9999916217034036,
        0.999987132475888,
        1.0
      ],
      "min": [
        -0.9999852670533899,
        -0.9999864618035725,
        -1.0
      ],
      "type": "VEC3"
    },
    {
      "bufferView": 7,
      "componentType": 5126,
      "count": 1308,
      "max": [
        0.9870614100847229,
        1.0
      ],
      "min": [
        0.0,
        0.0
      ],
      "type": "VEC2"
    },
    {
      "bufferView": 8,
      "componentType": 5125,
      "count": 2976,
      "type": "SCALAR"
    },
    {
      "bufferView": 9,
      "componentType": 5126,
      "count": 836,
      "max": [
        -0.07492337775576038,
        0.0074269381511065935,
        0.003999999898951496
      ],
      "min": [
        -0.09439401593854885,
        0.00024824758302138816,
        -0.0039999998989515015
      ],
      "type": "VEC3"
    },
    {
      "bufferView": 10,
      "componentType": 5126,
      "count": 836,
      "max": [
        0.9999952478697316,
        0.9999999395159823,
        1.0
      ],
      "min": [
        -0.9999991349826427,
        -0.9999997824185906,
        -1.0
      ],
      "type": "VEC3"
    },
    {
      "bufferView": 11,
      "componentType": 5126,
      "count": 836,
      "max": [
        1.0,
        0.9990688872228238
      ],
      "min": [
        0.0,
        0.0
      ],
      "type": "VEC2"
    },
    {
      "bufferView": 12,
      "componentType": 5125,
      "count": 3282,
      "type": "SCALAR"
    },
    {
      "bufferView": 13,
      "componentType": 5126,
      "count": 925,
      "max": [
        0.09439401593854886,
        0.007485754861965177,
        0.0039999998989515
      ],
      "min": [
        0.07423067194875184,
        0.0003325636045205249,
        -0.0039999998989515015
      ],
      "type": "VEC3"
    },
    {
      "bufferView": 14,
      "componentType": 5126,
      "count": 925,
      "max": [
        0.9999954956328723,
        0.9999999725342003,
        1.0
      ],
      "min": [
        -0.9999708064992712,
        -0.9999999960142113,
        -1.0
      ],
      "type": "VEC3"
    },
    {
      "bufferView": 15,
      "componentType": 5126,
      "count": 925,
      "max": [
        0.9175174598093787,
        1.0
      ],
      "min": [
        0.0,
        0.0
      ],
      "type": "VEC2"
    },
    {
      "bufferView": 16,
      "componentType": 5125,
      "count": 31932,
      "type": "SCALAR"
    },
    {
      "bufferView": 17,
      "componentType": 5126,
      "count": 8930,
      "max": [
        0.06737527206945605,
        0.06828316186731259,
        0.0039999998989515
      ],
      "min": [
        -0.06819498373690677,
        -0.06828316186731262,
        -0.0039999998989515015
      ],
      "type": "VEC3"
    },
    {
      "bufferView": 18,
      "componentType": 5126,
      "count": 8930,
      "max": [
        1.0,
        0.9999999958098051,
        1.0
      ],
      "min": [
        -1.0,
        -1.0,
        -1.0
      ],
      "type": "VEC3"
    },
    {
      "bufferView": 19,
      "componentType": 5126,
      "count": 8930,
      "max": [
        1.0,
        0.9966309788694816
      ],
      "min": [
        0.0,
        0.0
      ],
      "type": "VEC2"
    }
  ],
  "asset": {
    "generator": "Adobe Illustrator",
    "version": "2.0"
  },
  "bufferViews": [
    {
      "buffer": 0,
      "byteLength": 18600,
      "target": 34963
    },
    {
      "buffer": 0,
      "byteLength": 15636,
      "byteOffset": 18600,
      "target": 34962
    },
    {
      "buffer": 0,
      "byteLength": 15636,
      "byteOffset": 34236,
      "target": 34962
    },
    {
      "buffer": 0,
      "byteLength": 10424,
      "byteOffset": 49872,
      "target": 34962
    },
    {
      "buffer": 0,
      "byteLength": 18672,
      "byteOffset": 60296,
      "target": 34963
    },
    {
      "buffer": 0,
      "byteLength": 15696,
      "byteOffset": 78968,
      "target": 34962
    },
    {
      "buffer": 0,
      "byteLength": 15696,
      "byteOffset": 94664,
      "target": 34962
    },
    {
      "buffer": 0,
      "byteLength": 10464,
      "byteOffset": 110360,
      "target": 34962
    },
    {
      "buffer": 0,
      "byteLength": 11904,
      "byteOffset": 120824,
      "target": 34963
    },
    {
      "buffer": 0,
      "byteLength": 10032,
      "byteOffset": 132728,
      "target": 34962
    },
    {
      "buffer": 0,
      "byteLength": 10032,
      "byteOffset": 142760,
      "target": 34962
    },
    {
      "buffer": 0,
      "byteLength": 6688,
      "byteOffset": 152792,
      "target": 34962
    },
    {
      "buffer": 0,
      "byteLength": 13128,
      "byteOffset": 159480,
      "target": 34963
    },
    {
      "buffer": 0,
      "byteLength": 11100,
      "byteOffset": 172608,
      "target": 34962
    },
    {
      "buffer": 0,
      "byteLength": 11100,
      "byteOffset": 183708,
      "target": 34962
    },
    {
      "buffer": 0,
      "byteLength": 7400,
      "byteOffset": 194808,
      "target": 34962
    },
    {
      "buffer": 0,
      "byteLength": 127728,
      "byteOffset": 202208,
      "target": 34963
    },
    {
      "buffer": 0,
      "byteLength": 107160,
      "byteOffset": 329936,
      "target": 34962
    },
    {
      "buffer": 0,
      "byteLength": 107160,
      "byteOffset": 437096,
      "target": 34962
    },
    {
      "buffer": 0,
      "byteLength": 71440,
      "byteOffset": 544256,
      "target": 34962
    }
  ],
  "buffers": [
    {
      "byteLength": 615696,
      "uri": "data:application/octet-stream;base64,"
    }
  ],
  "materials": [
    {
      "doubleSided": true,
      "pbrMetallicRoughness": {
        "baseColorFactor": [
          0.9453124403953552,
          0.9453124403953552,
          0.9492186903953552,
          1.0
        ],
        "metallicFactor": 0.0,
        "roughnessFactor": 0.4000000059604645
      }
    },
    {
      "doubleSided": true,
      "pbrMetallicRoughness": {
        "baseColorFactor": [
          0.9453124403953552,
          0.9453124403953552,
          0.9492186903953552,
          1.0
        ],
        "metallicFactor": 0.0,
        "roughnessFactor": 0.4000000059604645
      }
    },
    {
      "doubleSided": true,
      "pbrMetallicRoughness": {
        "baseColorFactor": [
          0.9453124403953552,
          0.9453124403953552,
          0.9492186903953552,
          1.0
        ],
        "metallicFactor": 0.0,
        "roughnessFactor": 0.4000000059604645
      }
    },
    {
      "doubleSided": true,
      "pbrMetallicRoughness": {
        "baseColorFactor": [
          0.9453124403953552,
          0.9453124403953552,
          0.9492186903953552,
          1.0
        ],
        "metallicFactor": 0.0,
        "roughnessFactor": 0.4000000059604645
      }
    },
    {
      "doubleSided": true,
      "pbrMetallicRoughness": {
        "baseColorFactor": [
          0.9453124403953552,
          0.9453124403953552,
          0.9492186903953552,
          1.0
        ],
        "metallicFactor": 0.0,
        "roughnessFactor": 0.4000000059604645
      }
    }
  ],
  "meshes": [
    {
      "primitives": [
        {
          "attributes": {
            "NORMAL": 2,
            "POSITION": 1,
            "TEXCOORD_0": 3
          },
          "indices": 0,
          "material": 0,
          "mode": 4
        }
      ]
    },
    {
      "primitives": [
        {
          "attributes": {
            "NORMAL": 6,
            "POSITION": 5,
            "TEXCOORD_0": 7
          },
          "indices": 4,
          "material": 1,
          "mode": 4
        }
      ]
    },
    {
      "primitives": [
        {
          "attributes": {
            "NORMAL": 10,
            "POSITION": 9,
            "TEXCOORD_0": 11
          },
          "indices": 8,
          "material": 2,
          "mode": 4
        }
      ]
    },
    {
      "primitives": [
        {
          "attributes": {
            "NORMAL": 14,
            "POSITION": 13,
            "TEXCOORD_0": 15
          },
          "indices": 12,
          "material": 3,
          "mode": 4
        }
      ]
    },
    {
      "primitives": [
        {
          "attributes": {
            "NORMAL": 18,
            "POSITION": 17,
            "TEXCOORD_0": 19
          },
          "indices": 16,
          "material": 4,
          "mode": 4
        }
      ]
    }
  ],
  "nodes": [
    {
      "mesh": 0
    },
    {
      "mesh": 1
    },
    {
      "mesh": 2
    },
    {
      "mesh": 3
    },
    {
      "mesh": 4
    }
  ],
  "scenes": [
    {
      "nodes": [
        0,
        1,
        2,
        3,
        4
      ]
    }
  ]
}
