{
  "accessors": [
    {
      "bufferView": 0,
      "componentType": 5125,
      "count": 5478,
      "type": "SCALAR"
    },
    {
      "bufferView": 1,
      "componentType": 5126,
      "count": 1543,
      "max": [
        0.03643380036610183,
        0.027966173600916938,
        0.009999999747378752
      ],
      "min": [
        -0.03643380036610182,
        -0.027966173600916966,
        -0.009999999747378752
      ],
      "type": "VEC3"
    },
    {
      "bufferView": 2,
      "componentType": 5126,
      "count": 1543,
      "max": [
        0.9999999994372027,
        0.9999987932454425,
        1.0
      ],
      "min": [
        -0.9999948460452258,
        -1.0,
        -1.0
      ],
      "type": "VEC3"
    },
    {
      "bufferView": 3,
      "componentType": 5126,
      "count": 1543,
      "max": [
        1.0,
        0.9801339172933652
      ],
      "min": [
        0.0,
        0.0
      ],
      "type": "VEC2"
    }
  ],
  "asset": {
    "generator": "Adobe Illustrator",
    "version": "2.0"
  },
  "bufferViews": [
    {
      "buffer": 0,
      "byteLength": 21912,
      "target": 34963
    },
    {
      "buffer": 0,
      "byteLength": 18516,
      "byteOffset": 21912,
      "target": 34962
    },
    {
      "buffer": 0,
      "byteLength": 18516,
      "byteOffset": 40428,
      "target": 34962
    },
    {
      "buffer": 0,
      "byteLength": 12344,
      "byteOffset": 58944,
      "target": 34962
    }
  ],
  "buffers": [
    {
      "byteLength": 71288,
      "uri": "data:application/octet-stream;base64,"
    }
  ],
  "materials": [
    {
      "doubleSided": true,
      "pbrMetallicRoughness": {
        "baseColorFactor": [
          0.9999999403953552,
          0.9999999403953552,
          0.9999999403953552,
          1.0
        ],
        "metallicFactor": 0.0,
        "roughnessFactor": 0.4000000059604645
      }
    }
  ],
  "meshes": [
    {
      "primitives": [
        {
          "attributes": {
            "NORMAL": 2,
            "POSITION": 1,
            "TEXCOORD_0": 3
          },
          "indices": 0,
          "material": 0,
          "mode": 4
        }
      ]
    }
  ],
  "nodes": [
    {
      "mesh": 0
    }
  ],
  "scenes": [
    {
      "nodes": [
        0
      ]
    }
  ]
}
