{
  "accessors": [
    {
      "bufferView": 0,
      "componentType": 5125,
      "count": 1824,
      "type": "SCALAR"
    },
    {
      "bufferView": 1,
      "componentType": 5126,
      "count": 520,
      "max": [
        0.02216269686684906,
        0.030639676314694247,
        0.003999999898951501
      ],
      "min": [
        -0.01388706804675495,
        0.002545234832702914,
        -0.003999999898951502
      ],
      "type": "VEC3"
    },
    {
      "bufferView": 2,
      "componentType": 5126,
      "count": 520,
      "max": [
        0.9999770230100598,
        0.9999999995036618,
        1.0
      ],
      "min": [
        -0.7211749680698193,
        -0.7558826204790485,
        -1.0
      ],
      "type": "VEC3"
    },
    {
      "bufferView": 3,
      "componentType": 5126,
      "count": 520,
      "max": [
        1.0,
        0.9389271898326838
      ],
      "min": [
        0.0,
        0.0
      ],
      "type": "VEC2"
    },
    {
      "bufferView": 4,
      "componentType": 5125,
      "count": 6444,
      "type": "SCALAR"
    },
    {
      "bufferView": 5,
      "componentType": 5126,
      "count": 1808,
      "max": [
        0.03539362643942169,
        0.047472510554646075,
        0.003999999898951497
      ],
      "min": [
        -0.03522867912911787,
        -0.023155936407905864,
        -0.003999999898951502
      ],
      "type": "VEC3"
    },
    {
      "bufferView": 6,
      "componentType": 5126,
      "count": 1808,
      "max": [
        0.9999974460027644,
        0.9999996669868277,
        1.0
      ],
      "min": [
        -0.9999997659826154,
        -0.9999988932346806,
        -1.0
      ],
      "type": "VEC3"
    },
    {
      "bufferView": 7,
      "componentType": 5126,
      "count": 1808,
      "max": [
        0.9893883306591672,
        1.0
      ],
      "min": [
        0.0,
        0.0
      ],
      "type": "VEC2"
    },
    {
      "bufferView": 8,
      "componentType": 5125,
      "count": 7692,
      "type": "SCALAR"
    },
    {
      "bufferView": 9,
      "componentType": 5126,
      "count": 2154,
      "max": [
        0.03515650984065384,
        -0.02330437280361275,
        0.003999999898951499
      ],
      "min": [
        -0.03472110920172734,
        -0.042759056512469557,
        -0.003999999898951502
      ],
      "type": "VEC3"
    },
    {
      "bufferView": 10,
      "componentType": 5126,
      "count": 2154,
      "max": [
        0.9448664669270683,
        0.9999999997607397,
        1.0
      ],
      "min": [
        -0.9999967333077645,
        -0.9999999991208192,
        -1.0
      ],
      "type": "VEC3"
    },
    {
      "bufferView": 11,
      "componentType": 5126,
      "count": 2154,
      "max": [
        1.0,
        0.9088928874601147
      ],
      "min": [
        0.0,
        0.0
      ],
      "type": "VEC2"
    },
    {
      "bufferView": 12,
      "componentType": 5125,
      "count": 8562,
      "type": "SCALAR"
    },
    {
      "bufferView": 13,
      "componentType": 5126,
      "count": 2387,
      "max": [
        0.051234064169062496,
        0.08378279510531936,
        0.003999999898951502
      ],
      "min": [
        -0.051234064169062475,
        -0.08378279510531939,
        -0.003999999898951502
      ],
      "type": "VEC3"
    },
    {
      "bufferView": 14,
      "componentType": 5126,
      "count": 2387,
      "max": [
        0.9999999997115281,
        0.9999999964541119,
        1.0
      ],
      "min": [
        -0.9999999694548588,
        -0.9999999996640421,
        -1.0
      ],
      "type": "VEC3"
    },
    {
      "bufferView": 15,
      "componentType": 5126,
      "count": 2387,
      "max": [
        0.9980244653319222,
        1.0
      ],
      "min": [
        0.0,
        0.0
      ],
      "type": "VEC2"
    }
  ],
  "asset": {
    "generator": "Adobe Illustrator",
    "version": "2.0"
  },
  "bufferViews": [
    {
      "buffer": 0,
      "byteLength": 7296,
      "target": 34963
    },
    {
      "buffer": 0,
      "byteLength": 6240,
      "byteOffset": 7296,
      "target": 34962
    },
    {
      "buffer": 0,
      "byteLength": 6240,
      "byteOffset": 13536,
      "target": 34962
    },
    {
      "buffer": 0,
      "byteLength": 4160,
      "byteOffset": 19776,
      "target": 34962
    },
    {
      "buffer": 0,
      "byteLength": 25776,
      "byteOffset": 23936,
      "target": 34963
    },
    {
      "buffer": 0,
      "byteLength": 21696,
      "byteOffset": 49712,
      "target": 34962
    },
    {
      "buffer": 0,
      "byteLength": 21696,
      "byteOffset": 71408,
      "target": 34962
    },
    {
      "buffer": 0,
      "byteLength": 14464,
      "byteOffset": 93104,
      "target": 34962
    },
    {
      "buffer": 0,
      "byteLength": 30768,
      "byteOffset": 107568,
      "target": 34963
    },
    {
      "buffer": 0,
      "byteLength": 25848,
      "byteOffset": 138336,
      "target": 34962
    },
    {
      "buffer": 0,
      "byteLength": 25848,
      "byteOffset": 164184,
      "target": 34962
    },
    {
      "buffer": 0,
      "byteLength": 17232,
      "byteOffset": 190032,
      "target": 34962
    },
    {
      "buffer": 0,
      "byteLength": 34248,
      "byteOffset": 207264,
      "target": 34963
    },
    {
      "buffer": 0,
      "byteLength": 28644,
      "byteOffset": 241512,
      "target": 34962
    },
    {
      "buffer": 0,
      "byteLength": 28644,
      "byteOffset": 270156,
      "target": 34962
    },
    {
      "buffer": 0,
      "byteLength": 19096,
      "byteOffset": 298800,
      "target": 34962
    }
  ],
  "buffers": [
    {
      "byteLength": 317896,
      "uri": "data:application/octet-stream;base64,"
    }
  ],
  "materials": [
    {
      "doubleSided": true,
      "pbrMetallicRoughness": {
        "baseColorFactor": [
          0.9999999403953552,
          0.9999999403953552,
          0.9999999403953552,
          1.0
        ],
        "metallicFactor": 0.0,
        "roughnessFactor": 0.4000000059604645
      }
    },
    {
      "doubleSided": true,
      "pbrMetallicRoughness": {
        "baseColorFactor": [
          0.9999999403953552,
          0.9999999403953552,
          0.9999999403953552,
          1.0
        ],
        "metallicFactor": 0.0,
        "roughnessFactor": 0.4000000059604645
      }
    },
    {
      "doubleSided": true,
      "pbrMetallicRoughness": {
        "baseColorFactor": [
          0.9999999403953552,
          0.9999999403953552,
          0.9999999403953552,
          1.0
        ],
        "metallicFactor": 0.0,
        "roughnessFactor": 0.4000000059604645
      }
    },
    {
      "doubleSided": true,
      "pbrMetallicRoughness": {
        "baseColorFactor": [
          0.9999999403953552,
          0.9999999403953552,
          0.9999999403953552,
          1.0
        ],
        "metallicFactor": 0.0,
        "roughnessFactor": 0.4000000059604645
      }
    }
  ],
  "meshes": [
    {
      "primitives": [
        {
          "attributes": {
            "NORMAL": 2,
            "POSITION": 1,
            "TEXCOORD_0": 3
          },
          "indices": 0,
          "material": 0,
          "mode": 4
        }
      ]
    },
    {
      "primitives": [
        {
          "attributes": {
            "NORMAL": 6,
            "POSITION": 5,
            "TEXCOORD_0": 7
          },
          "indices": 4,
          "material": 1,
          "mode": 4
        }
      ]
    },
    {
      "primitives": [
        {
          "attributes": {
            "NORMAL": 10,
            "POSITION": 9,
            "TEXCOORD_0": 11
          },
          "indices": 8,
          "material": 2,
          "mode": 4
        }
      ]
    },
    {
      "primitives": [
        {
          "attributes": {
            "NORMAL": 14,
            "POSITION": 13,
            "TEXCOORD_0": 15
          },
          "indices": 12,
          "material": 3,
          "mode": 4
        }
      ]
    }
  ],
  "nodes": [
    {
      "mesh": 0
    },
    {
      "mesh": 1
    },
    {
      "mesh": 2
    },
    {
      "mesh": 3
    }
  ],
  "scenes": [
    {
      "nodes": [
        0,
        1,
        2,
        3
      ]
    }
  ]
}
