{
  "accessors": [
    {
      "bufferView": 0,
      "componentType": 5125,
      "count": 2922,
      "type": "SCALAR"
    },
    {
      "bufferView": 1,
      "componentType": 5126,
      "count": 821,
      "max": [
        0.040471826603333025,
        -0.008798769446420135,
        0.0039999998989514955
      ],
      "min": [
        0.0365430396965913,
        -0.02136144023154765,
        -0.003999999898951502
      ],
      "type": "VEC3"
    },
    {
      "bufferView": 2,
      "componentType": 5126,
      "count": 821,
      "max": [
        0.9999999998060501,
        0.9999850277413977,
        1.0
      ],
      "min": [
        -0.9999999954747467,
        -0.9999958676941225,
        -1.0
      ],
      "type": "VEC3"
    },
    {
      "bufferView": 3,
      "componentType": 5126,
      "count": 821,
      "max": [
        0.7767100581122713,
        1.0
      ],
      "min": [
        0.0,
        0.0
      ],
      "type": "VEC2"
    },
    {
      "bufferView": 4,
      "componentType": 5125,
      "count": 3228,
      "type": "SCALAR"
    },
    {
      "bufferView": 5,
      "componentType": 5126,
      "count": 906,
      "max": [
        0.0073634144908239635,
        0.040243861634442366,
        0.003999999898951501
      ],
      "min": [
        -0.0074189434241953844,
        0.013993246372141999,
        -0.003999999898951502
      ],
      "type": "VEC3"
    },
    {
      "bufferView": 6,
      "componentType": 5126,
      "count": 906,
      "max": [
        0.9999999912084423,
        0.9999999793128381,
        1.0
      ],
      "min": [
        -0.9999999960344378,
        -0.9999999946993177,
        -1.0
      ],
      "type": "VEC3"
    },
    {
      "bufferView": 7,
      "componentType": 5126,
      "count": 906,
      "max": [
        0.7961362759222479,
        1.0
      ],
      "min": [
        0.0,
        0.0
      ],
      "type": "VEC2"
    },
    {
      "bufferView": 8,
      "componentType": 5125,
      "count": 3444,
      "type": "SCALAR"
    },
    {
      "bufferView": 9,
      "componentType": 5126,
      "count": 970,
      "max": [
        -0.029904093645840416,
        0.0031492312527976463,
        0.003999999898951501
      ],
      "min": [
        -0.04067638603006575,
        -0.021197182425954864,
        -0.003999999898951502
      ],
      "type": "VEC3"
    },
    {
      "bufferView": 10,
      "componentType": 5126,
      "count": 970,
      "max": [
        0.9999999999783798,
        0.9999909207052511,
        1.0
      ],
      "min": [
        -1.0,
        -0.9998982123494777,
        -1.0
      ],
      "type": "VEC3"
    },
    {
      "bufferView": 11,
      "componentType": 5126,
      "count": 970,
      "max": [
        1.0,
        0.973033373300086
      ],
      "min": [
        0.0,
        0.0
      ],
      "type": "VEC2"
    },
    {
      "bufferView": 12,
      "componentType": 5125,
      "count": 4668,
      "type": "SCALAR"
    },
    {
      "bufferView": 13,
      "componentType": 5126,
      "count": 1306,
      "max": [
        0.031429623141062055,
        0.000181240123738019,
        0.003999999898951501
      ],
      "min": [
        -0.031449314999275835,
        -0.029012611913086517,
        -0.003999999898951502
      ],
      "type": "VEC3"
    },
    {
      "bufferView": 14,
      "componentType": 5126,
      "count": 1306,
      "max": [
        0.999999776298923,
        0.9999999964695407,
        1.0
      ],
      "min": [
        -0.9999996458998055,
        -0.9999999826307626,
        -1.0
      ],
      "type": "VEC3"
    },
    {
      "bufferView": 15,
      "componentType": 5126,
      "count": 1306,
      "max": [
        0.7354441932175464,
        1.0
      ],
      "min": [
        0.0,
        0.0
      ],
      "type": "VEC2"
    },
    {
      "bufferView": 16,
      "componentType": 5125,
      "count": 3534,
      "type": "SCALAR"
    },
    {
      "bufferView": 17,
      "componentType": 5126,
      "count": 991,
      "max": [
        -0.009880026602449535,
        0.029071230863960393,
        0.003999999898951499
      ],
      "min": [
        -0.028231095114718788,
        0.014003207314062807,
        -0.003999999898951502
      ],
      "type": "VEC3"
    },
    {
      "bufferView": 18,
      "componentType": 5126,
      "count": 991,
      "max": [
        0.9999999867445092,
        0.9999709962885169,
        1.0
      ],
      "min": [
        -0.9999990130545825,
        -0.9999999933825117,
        -1.0
      ],
      "type": "VEC3"
    },
    {
      "bufferView": 19,
      "componentType": 5126,
      "count": 991,
      "max": [
        1.0,
        0.8659330880989591
      ],
      "min": [
        0.0,
        0.0
      ],
      "type": "VEC2"
    },
    {
      "bufferView": 20,
      "componentType": 5125,
      "count": 3624,
      "type": "SCALAR"
    },
    {
      "bufferView": 21,
      "componentType": 5126,
      "count": 1016,
      "max": [
        0.02809051560129143,
        0.029030355422119694,
        0.003999999898951502
      ],
      "min": [
        0.009863877938424165,
        0.013998715086158797,
        -0.003999999898951502
      ],
      "type": "VEC3"
    },
    {
      "bufferView": 22,
      "componentType": 5126,
      "count": 1016,
      "max": [
        0.9872088441174917,
        0.9999975011801926,
        1.0
      ],
      "min": [
        -0.9999999649888283,
        -1.0,
        -1.0
      ],
      "type": "VEC3"
    },
    {
      "bufferView": 23,
      "componentType": 5126,
      "count": 1016,
      "max": [
        1.0,
        0.8664064320958977
      ],
      "min": [
        0.0,
        0.0
      ],
      "type": "VEC2"
    },
    {
      "bufferView": 24,
      "componentType": 5125,
      "count": 9414,
      "type": "SCALAR"
    },
    {
      "bufferView": 25,
      "componentType": 5126,
      "count": 2631,
      "max": [
        0.05143935800487516,
        0.0115197778731959,
        0.003999999898951499
      ],
      "min": [
        -0.05143935800487517,
        -0.04024386163444238,
        -0.003999999898951502
      ],
      "type": "VEC3"
    },
    {
      "bufferView": 26,
      "componentType": 5126,
      "count": 2631,
      "max": [
        1.0,
        0.9999999995733342,
        1.0
      ],
      "min": [
        -0.9999999155399584,
        -0.9999999996889861,
        -1.0
      ],
      "type": "VEC3"
    },
    {
      "bufferView": 27,
      "componentType": 5126,
      "count": 2631,
      "max": [
        0.9107944300162483,
        1.0
      ],
      "min": [
        0.0,
        0.0
      ],
      "type": "VEC2"
    }
  ],
  "asset": {
    "generator": "Adobe Illustrator",
    "version": "2.0"
  },
  "bufferViews": [
    {
      "buffer": 0,
      "byteLength": 11688,
      "target": 34963
    },
    {
      "buffer": 0,
      "byteLength": 9852,
      "byteOffset": 11688,
      "target": 34962
    },
    {
      "buffer": 0,
      "byteLength": 9852,
      "byteOffset": 21540,
      "target": 34962
    },
    {
      "buffer": 0,
      "byteLength": 6568,
      "byteOffset": 31392,
      "target": 34962
    },
    {
      "buffer": 0,
      "byteLength": 12912,
      "byteOffset": 37960,
      "target": 34963
    },
    {
      "buffer": 0,
      "byteLength": 10872,
      "byteOffset": 50872,
      "target": 34962
    },
    {
      "buffer": 0,
      "byteLength": 10872,
      "byteOffset": 61744,
      "target": 34962
    },
    {
      "buffer": 0,
      "byteLength": 7248,
      "byteOffset": 72616,
      "target": 34962
    },
    {
      "buffer": 0,
      "byteLength": 13776,
      "byteOffset": 79864,
      "target": 34963
    },
    {
      "buffer": 0,
      "byteLength": 11640,
      "byteOffset": 93640,
      "target": 34962
    },
    {
      "buffer": 0,
      "byteLength": 11640,
      "byteOffset": 105280,
      "target": 34962
    },
    {
      "buffer": 0,
      "byteLength": 7760,
      "byteOffset": 116920,
      "target": 34962
    },
    {
      "buffer": 0,
      "byteLength": 18672,
      "byteOffset": 124680,
      "target": 34963
    },
    {
      "buffer": 0,
      "byteLength": 15672,
      "byteOffset": 143352,
      "target": 34962
    },
    {
      "buffer": 0,
      "byteLength": 15672,
      "byteOffset": 159024,
      "target": 34962
    },
    {
      "buffer": 0,
      "byteLength": 10448,
      "byteOffset": 174696,
      "target": 34962
    },
    {
      "buffer": 0,
      "byteLength": 14136,
      "byteOffset": 185144,
      "target": 34963
    },
    {
      "buffer": 0,
      "byteLength": 11892,
      "byteOffset": 199280,
      "target": 34962
    },
    {
      "buffer": 0,
      "byteLength": 11892,
      "byteOffset": 211172,
      "target": 34962
    },
    {
      "buffer": 0,
      "byteLength": 7928,
      "byteOffset": 223064,
      "target": 34962
    },
    {
      "buffer": 0,
      "byteLength": 14496,
      "byteOffset": 230992,
      "target": 34963
    },
    {
      "buffer": 0,
      "byteLength": 12192,
      "byteOffset": 245488,
      "target": 34962
    },
    {
      "buffer": 0,
      "byteLength": 12192,
      "byteOffset": 257680,
      "target": 34962
    },
    {
      "buffer": 0,
      "byteLength": 8128,
      "byteOffset": 269872,
      "target": 34962
    },
    {
      "buffer": 0,
      "byteLength": 37656,
      "byteOffset": 278000,
      "target": 34963
    },
    {
      "buffer": 0,
      "byteLength": 31572,
      "byteOffset": 315656,
      "target": 34962
    },
    {
      "buffer": 0,
      "byteLength": 31572,
      "byteOffset": 347228,
      "target": 34962
    },
    {
      "buffer": 0,
      "byteLength": 21048,
      "byteOffset": 378800,
      "target": 34962
    }
  ],
  "buffers": [
    {
      "byteLength": 399848,
      "uri": "data:application/octet-stream;base64,"
    }
  ],
  "materials": [
    {
      "doubleSided": true,
      "pbrMetallicRoughness": {
        "baseColorFactor": [
          0.9999999403953552,
          0.9999999403953552,
          0.9999999403953552,
          1.0
        ],
        "metallicFactor": 0.0,
        "roughnessFactor": 0.4000000059604645
      }
    },
    {
      "doubleSided": true,
      "pbrMetallicRoughness": {
        "baseColorFactor": [
          0.9999999403953552,
          0.9999999403953552,
          0.9999999403953552,
          1.0
        ],
        "metallicFactor": 0.0,
        "roughnessFactor": 0.4000000059604645
      }
    },
    {
      "doubleSided": true,
      "pbrMetallicRoughness": {
        "baseColorFactor": [
          0.9999999403953552,
          0.9999999403953552,
          0.9999999403953552,
          1.0
        ],
        "metallicFactor": 0.0,
        "roughnessFactor": 0.4000000059604645
      }
    },
    {
      "doubleSided": true,
      "pbrMetallicRoughness": {
        "baseColorFactor": [
          0.9999999403953552,
          0.9999999403953552,
          0.9999999403953552,
          1.0
        ],
        "metallicFactor": 0.0,
        "roughnessFactor": 0.4000000059604645
      }
    },
    {
      "doubleSided": true,
      "pbrMetallicRoughness": {
        "baseColorFactor": [
          0.9999999403953552,
          0.9999999403953552,
          0.9999999403953552,
          1.0
        ],
        "metallicFactor": 0.0,
        "roughnessFactor": 0.4000000059604645
      }
    },
    {
      "doubleSided": true,
      "pbrMetallicRoughness": {
        "baseColorFactor": [
          0.9999999403953552,
          0.9999999403953552,
          0.9999999403953552,
          1.0
        ],
        "metallicFactor": 0.0,
        "roughnessFactor": 0.4000000059604645
      }
    },
    {
      "doubleSided": true,
      "pbrMetallicRoughness": {
        "baseColorFactor": [
          0.9999999403953552,
          0.9999999403953552,
          0.9999999403953552,
          1.0
        ],
        "metallicFactor": 0.0,
        "roughnessFactor": 0.4000000059604645
      }
    }
  ],
  "meshes": [
    {
      "primitives": [
        {
          "attributes": {
            "NORMAL": 2,
            "POSITION": 1,
            "TEXCOORD_0": 3
          },
          "indices": 0,
          "material": 0,
          "mode": 4
        }
      ]
    },
    {
      "primitives": [
        {
          "attributes": {
            "NORMAL": 6,
            "POSITION": 5,
            "TEXCOORD_0": 7
          },
          "indices": 4,
          "material": 1,
          "mode": 4
        }
      ]
    },
    {
      "primitives": [
        {
          "attributes": {
            "NORMAL": 10,
            "POSITION": 9,
            "TEXCOORD_0": 11
          },
          "indices": 8,
          "material": 2,
          "mode": 4
        }
      ]
    },
    {
      "primitives": [
        {
          "attributes": {
            "NORMAL": 14,
            "POSITION": 13,
            "TEXCOORD_0": 15
          },
          "indices": 12,
          "material": 3,
          "mode": 4
        }
      ]
    },
    {
      "primitives": [
        {
          "attributes": {
            "NORMAL": 18,
            "POSITION": 17,
            "TEXCOORD_0": 19
          },
          "indices": 16,
          "material": 4,
          "mode": 4
        }
      ]
    },
    {
      "primitives": [
        {
          "attributes": {
            "NORMAL": 22,
            "POSITION": 21,
            "TEXCOORD_0": 23
          },
          "indices": 20,
          "material": 5,
          "mode": 4
        }
      ]
    },
    {
      "primitives": [
        {
          "attributes": {
            "NORMAL": 26,
            "POSITION": 25,
            "TEXCOORD_0": 27
          },
          "indices": 24,
          "material": 6,
          "mode": 4
        }
      ]
    }
  ],
  "nodes": [
    {
      "mesh": 0
    },
    {
      "mesh": 1
    },
    {
      "mesh": 2
    },
    {
      "mesh": 3
    },
    {
      "mesh": 4
    },
    {
      "mesh": 5
    },
    {
      "mesh": 6
    }
  ],
  "scenes": [
    {
      "nodes": [
        0,
        1,
        2,
        3,
        4,
        5,
        6
      ]
    }
  ]
}
